<svg width="779" height="898" viewBox="0 0 779 898" xmlns="http://www.w3.org/2000/svg"><title>Group Copy</title><g fill="none" fill-rule="evenodd"><path d="M388.8 1.2v224l194.6-112-194.6-112z" fill="#ED3045"/><path d="M583.4 113.2v224l-194.6-112 194.6-112z" fill="#FC2940"/><path d="M583.4 337.2v-224l194.6 112-194.6 112z" fill="#ED3045"/><path d="M778 449.2v-224l-194.6 112 194.6 112z" fill="#E3384A"/><path d="M584.4 561.2v-224l194.6 112-194.6 112z" fill="#D23E4D"/><path d="M778 673.2v-224l-194.6 112 194.6 112z" fill="#C54552"/><path d="M583.4 561.2v224l194.6-112-194.6-112z" fill="#9D575E"/><path d="M583.4 785.2v-224l-194.6 112 194.6 112z" fill="#915C62"/><path d="M388.8 897.2v-224l194.6 112-194.6 112z" fill="#866367"/><path d="M389.2 897.2v-224l-194.6 112 194.6 112z" fill="#79696A"/><path d="M194.6 785.2v-224l194.6 112-194.6 112z" fill="#6E6E6E"/><path d="M194.6 784.8v-224L0 672.8l194.6 112z" fill="#79696A"/><path d="M0 672.8v-224l194.6 112L0 672.8z" fill="#866367"/><path d="M194.6 560.8v-224L0 448.8l194.6 112z" fill="#915C62"/><path d="M0 448.8v-224l194.6 112L0 448.8z" fill="#9D575E"/><path d="M194.6 336.8v-224L0 224.8l194.6 112z" fill="#C54552"/><path d="M194.6 336.8v-224l194.6 112-194.6 112z" fill="#D23E4D"/><path d="M389.2 224.8V.8l-194.6 112 194.6 112z" fill="#E3384A"/></g></svg>