<svg xmlns="http://www.w3.org/2000/svg" width="244" height="50" viewBox="-183 372 244 50"><path fill="#ED3245" d="M-67.5 372v12.4l10.8-6.2-10.8-6.2z"/><path fill="#866367" d="M-67.5 421.8l10.8-6.2-10.8-6.2v12.4z"/><path fill="#9D575F" d="M-89.1 396.9v-12.4l10.8 6.2-10.8 6.2z"/><path fill="#866367" d="M-89.1 409.4v-12.5l10.8 6.2-10.8 6.3z"/><path fill="#ED3245" d="M-56.7 390.7v-12.4l10.8 6.2-10.8 6.2z"/><path fill="#D23E4E" d="M-56.7 403.1v-12.4l10.8 6.2-10.8 6.2z"/><path fill="#9D575F" d="M-56.7 415.6v-12.4l10.8 6.2-10.8 6.2z"/><path fill="#E3384A" d="M-67.5 372l-10.8 6.2 10.8 6.2V372z"/><path fill="#79696A" d="M-78.3 415.6l10.8 6.2v-12.4l-10.8 6.2z"/><path fill="#E3384A" d="M-45.9 396.9v-12.4l-10.8 6.2 10.8 6.2z"/><path fill="#C54552" d="M-45.9 409.4v-12.5l-10.8 6.2 10.8 6.3z"/><path fill="#FF2841" d="M-56.7 390.7v-12.4l-10.8 6.2 10.8 6.2z"/><path fill="#915C62" d="M-56.7 415.6v-12.4l-10.8 6.2 10.8 6.2z"/><path fill="#C54552" d="M-78.3 390.7v-12.4l-10.8 6.2 10.8 6.2z"/><path fill="#915C62" d="M-78.3 403.1v-12.4l-10.8 6.2 10.8 6.2z"/><path fill="#79696A" d="M-78.3 415.6v-12.4l-10.8 6.2 10.8 6.2z"/><path fill="#D23E4E" d="M-78.3 390.7v-12.4l10.8 6.2-10.8 6.2z"/><path fill="#6E6E6E" d="M-78.3 415.6v-12.4l10.8 6.2-10.8 6.2z"/><path fill="#FFF" d="M8.7 384.4h2.8v25H8.7zm27.8 0h3l-10.7 25.2h-2.5l-10.7-25.2h3.1l8.9 21.5 8.9-21.5zm6 0v25h18.2v-2.6H45.3v-8.7H59v-2.6H45.3V387h15.2v-2.6h-18zm-182.3 2.6H-155v8.5h13.6v2.6H-155v8.7h15.4v2.6h-18.2v-25h18.1v2.6h-.1zm118-2.6h2.8v25h-2.3l-16.1-20.5v20.5h-2.7v-25h2.6l15.7 20v-20zm-74.6 8.1c0 .8-.2 1.6-.5 2.3-.3.7-.8 1.3-1.4 1.7-.6.5-1.3.9-2.2 1.1-.9.2-1.8.4-2.8.4h-6.2v-11h6.3c2 0 3.7.5 4.9 1.4 1.3.9 1.9 2.3 1.9 4.1m2.9-.1c0-1.2-.2-2.3-.7-3.3-.4-1-1.1-1.8-1.9-2.5-.8-.7-1.8-1.2-3-1.6-1.2-.4-2.4-.6-3.8-.6h-9.4v25h2.8v-8.8h6.1c1.3 0 2.6-.2 3.8-.5 1.2-.4 2.2-.9 3.1-1.6.9-.7 1.6-1.6 2.1-2.6.6-1 .9-2.2.9-3.5m82.2-.1c.2.5.5.9 1 1.3s1.2.7 2.1 1.1c.9.3 2 .6 3.4.9 2.8.6 4.8 1.5 6.2 2.6 1.3 1.1 2 2.6 2 4.5 0 1.1-.2 2.1-.6 2.9s-1 1.6-1.7 2.2-1.6 1.1-2.7 1.4c-1.1.3-2.2.5-3.4.5-2 0-3.8-.3-5.5-1-1.7-.6-3.2-1.6-4.7-3l1.7-2.1c1.3 1.2 2.6 2.1 4 2.7 1.3.6 2.9.9 4.6.9 1.7 0 3.1-.4 4-1.2 1-.8 1.5-1.8 1.5-3.1 0-.6-.1-1.1-.3-1.6-.2-.5-.5-.9-1-1.3s-1.1-.7-2-1c-.9-.3-1.9-.6-3.2-.9-1.4-.3-2.7-.7-3.7-1.1-1.1-.4-2-.9-2.6-1.5-.7-.6-1.2-1.2-1.5-2-.3-.8-.5-1.7-.5-2.7 0-1 .2-1.9.6-2.8.4-.9 1-1.6 1.7-2.2.7-.6 1.6-1.1 2.6-1.4 1-.4 2.1-.5 3.3-.5 1.8 0 3.4.2 4.8.7 1.4.5 2.7 1.3 4 2.3L1 389.3c-1.2-1-2.3-1.6-3.5-2.1s-2.4-.6-3.7-.6c-.8 0-1.5.1-2.2.3-.6.2-1.2.5-1.7.9s-.8.8-1.1 1.3c-.2.5-.4 1-.4 1.6 0 .5.1 1.1.3 1.6m-120.6 0c.2.5.5.9 1 1.3s1.2.7 2.1 1.1c.9.3 2 .6 3.4.9 2.8.6 4.8 1.5 6.2 2.6 1.3 1.1 2 2.6 2 4.5 0 1.1-.2 2.1-.6 2.9s-1 1.6-1.7 2.2c-.7.6-1.6 1.1-2.7 1.4-1.1.3-2.2.5-3.4.5-2 0-3.8-.3-5.5-1-1.7-.6-3.2-1.6-4.7-3l1.7-2.1c1.3 1.2 2.6 2.1 4 2.7 1.3.6 2.9.9 4.6.9 1.7 0 3.1-.4 4-1.2 1-.8 1.5-1.8 1.5-3.1 0-.6-.1-1.1-.3-1.6-.2-.5-.5-.9-1-1.3s-1.1-.7-2-1c-.9-.3-1.9-.6-3.2-.9-1.4-.3-2.7-.7-3.7-1.1-1.1-.4-2-.9-2.6-1.5-.7-.6-1.2-1.2-1.5-2-.3-.8-.5-1.7-.5-2.7 0-1 .2-1.9.6-2.8.4-.9 1-1.6 1.7-2.2.7-.6 1.6-1.1 2.6-1.4 1-.4 2.1-.5 3.3-.5 1.8 0 3.4.2 4.8.7 1.4.5 2.7 1.3 4 2.3l-1.6 2.2c-1.2-1-2.3-1.6-3.5-2.1s-2.4-.6-3.7-.6c-.8 0-1.5.1-2.2.3-.6.2-1.2.5-1.7.9s-.8.8-1.1 1.3-.4 1-.4 1.6c-.2.7-.1 1.3.1 1.8m-34.1-.3c0 .8-.2 1.5-.5 2.2-.3.6-.8 1.2-1.3 1.6-.6.4-1.2.8-2.1 1-.8.2-1.6.4-2.6.4h-7.7V387h7.7c2 0 3.6.4 4.7 1.3 1.2.9 1.8 2.1 1.8 3.7m2.3 2.7c.3-.8.5-1.7.5-2.8 0-1.1-.2-2.1-.6-3.1-.4-.9-1-1.7-1.8-2.3-.8-.6-1.7-1.2-2.8-1.5-1.1-.4-2.3-.5-3.7-.5H-183v25h2.8v-9.7h7.1l7.2 9.7h3.5l-7.7-10.2c1-.2 1.9-.5 2.7-.9.8-.4 1.6-.9 2.2-1.5.7-.7 1.1-1.4 1.5-2.2"/></svg>